<svg width="27" height="29" viewBox="0 0 27 29" fill="none" xmlns="http://www.w3.org/2000/svg">
    <g clip-path="url(#clip0_69_1003)">
        <g clip-path="url(#clip1_69_1003)">
            <path d="M23.5457 8.55525C23.551 7.9674 23.3614 7.39306 23.0042 6.91467C22.7252 6.51676 22.3452 6.19304 21.8998 5.97379C21.4544 5.75453 20.9581 5.64692 20.4574 5.661C15.8503 5.66172 11.2432 5.66276 6.63603 5.66411C6.39167 5.66299 6.148 5.68906 5.90994 5.7418C5.23959 5.89433 4.64376 6.26111 4.22096 6.78148C3.79817 7.30186 3.57374 7.94466 3.58479 8.60358C3.58144 10.9812 3.58144 13.3589 3.58479 15.7367C3.58327 15.856 3.58869 15.9753 3.60104 16.0941C3.68665 16.8172 4.05054 17.484 4.62186 17.9646C5.19319 18.4453 5.93108 18.7055 6.69192 18.6945C9.19546 18.671 11.6993 18.6887 14.203 18.6864C14.3088 18.6843 14.4124 18.7155 14.4978 18.7753C16.7157 20.267 18.9349 21.7575 21.1552 23.2467C21.1959 23.2741 21.2378 23.2992 21.3005 23.339C21.0292 21.7769 20.763 20.2438 20.4941 18.6957C20.5534 18.6917 20.5884 18.6883 20.6241 18.687C21.4087 18.6598 22.1516 18.3428 22.6967 17.8025C23.2419 17.2622 23.5467 16.5408 23.5472 15.79C23.5491 13.3783 23.5486 10.9668 23.5457 8.55525ZM19.4816 14.6434C19.3402 14.7126 19.1839 14.7493 19.0251 14.7506C17.2024 14.7577 15.3797 14.7551 13.5569 14.7551C11.7297 14.7551 9.9026 14.7551 8.07554 14.7551C7.96738 14.7578 7.85975 14.7398 7.75899 14.7021C7.65823 14.6644 7.5664 14.6077 7.48892 14.5355C7.41143 14.4633 7.34987 14.377 7.30786 14.2816C7.26585 14.1862 7.24425 14.0838 7.24433 13.9803C7.23921 13.7737 7.3198 13.5736 7.46848 13.4236C7.61716 13.2736 7.82185 13.186 8.03785 13.1799C8.11323 13.177 8.18894 13.1799 8.26531 13.1799C11.8574 13.1799 15.4495 13.1799 19.0416 13.1799C19.2255 13.1747 19.4059 13.2286 19.5539 13.3331C19.7019 13.4376 19.8089 13.5866 19.8577 13.7562C19.9093 13.923 19.9002 14.1016 19.8319 14.2627C19.7636 14.4239 19.6401 14.5581 19.4816 14.6434ZM7.8471 9.41517C7.93797 9.39527 8.0311 9.38645 8.12428 9.38891C9.93455 9.38736 11.7448 9.38699 13.5551 9.38782C15.3831 9.38782 17.2112 9.38782 19.0392 9.38782C19.2162 9.38016 19.391 9.42848 19.5365 9.52532C19.6819 9.62217 19.79 9.76214 19.8439 9.9236C19.8993 10.0822 19.9009 10.2535 19.8484 10.4129C19.7958 10.5724 19.6919 10.7119 19.5515 10.8115C19.3901 10.9194 19.1957 10.9727 18.9991 10.9631C16.7085 10.9617 14.4179 10.9614 12.1273 10.9622C10.7842 10.9622 9.44107 10.9622 8.09796 10.9622C7.89597 10.9696 7.69817 10.9058 7.54219 10.7828C7.38621 10.6598 7.28293 10.4863 7.252 10.2953C7.22107 10.1042 7.26464 9.90896 7.37442 9.74663C7.48421 9.5843 7.65255 9.46622 7.84743 9.41486L7.8471 9.41517Z" fill="#F5F2EC"/>
        </g>
    </g>
    <defs>
        <clipPath id="clip0_69_1003">
            <rect width="25.2174" height="29" fill="white" transform="translate(0.956543)"/>
        </clipPath>
        <clipPath id="clip1_69_1003">
            <rect width="25.2174" height="18.913" fill="white" transform="translate(0.956543 5.04347)"/>
        </clipPath>
    </defs>
</svg>
