<svg width="20" height="23" viewBox="0 0 20 23" fill="none" xmlns="http://www.w3.org/2000/svg">
<path d="M17.9155 6.7852C17.9197 6.31897 17.7693 5.86346 17.486 5.48405C17.2647 5.16846 16.9633 4.91172 16.6101 4.73783C16.2569 4.56394 15.8633 4.47859 15.4661 4.48976C11.8122 4.49033 8.15832 4.49115 4.50434 4.49222C4.31054 4.49133 4.11728 4.51201 3.92848 4.55384C3.39682 4.67481 2.92426 4.96571 2.58894 5.37842C2.25362 5.79113 2.07563 6.30093 2.08439 6.82353C2.08173 8.70924 2.08173 10.595 2.08439 12.4808C2.08318 12.5754 2.08749 12.6701 2.09728 12.7642C2.16518 13.3378 2.45378 13.8666 2.9069 14.2478C3.36002 14.629 3.94525 14.8354 4.54867 14.8266C6.53424 14.808 8.52006 14.8221 10.5058 14.8202C10.5897 14.8186 10.6718 14.8433 10.7395 14.8907C12.4986 16.0738 14.2586 17.2559 16.0196 18.4371C16.0518 18.4587 16.085 18.4787 16.1348 18.5103C15.9196 17.2713 15.7085 16.0555 15.4953 14.8276C15.5423 14.8244 15.57 14.8217 15.5983 14.8207C16.2206 14.7992 16.8098 14.5477 17.2421 14.1192C17.6745 13.6907 17.9163 13.1185 17.9166 12.5231C17.9182 10.6104 17.9178 8.69778 17.9155 6.7852ZM14.6922 11.6137C14.5801 11.6686 14.4561 11.6977 14.3301 11.6987C12.8846 11.7044 11.4389 11.7023 9.99329 11.7023C8.54416 11.7023 7.09507 11.7023 5.64602 11.7023C5.56024 11.7045 5.47487 11.6902 5.39496 11.6603C5.31505 11.6304 5.24222 11.5854 5.18077 11.5282C5.11932 11.4709 5.07049 11.4024 5.03717 11.3268C5.00385 11.2512 4.98672 11.1699 4.98678 11.0878C4.98273 10.924 5.04664 10.7652 5.16456 10.6463C5.28247 10.5273 5.44482 10.4579 5.61613 10.453C5.67592 10.4507 5.73596 10.453 5.79653 10.453C8.6454 10.453 11.4943 10.453 14.3433 10.453C14.4891 10.4489 14.6322 10.4917 14.7495 10.5745C14.8669 10.6574 14.9518 10.7756 14.9905 10.9101C15.0314 11.0424 15.0242 11.184 14.97 11.3118C14.9158 11.4396 14.8179 11.546 14.6922 11.6137ZM5.46485 7.4672C5.53691 7.45142 5.61078 7.44442 5.68468 7.44638C7.12041 7.44514 8.55614 7.44486 9.99187 7.44551C11.4417 7.44551 12.8915 7.44551 14.3413 7.44551C14.4818 7.43943 14.6204 7.47776 14.7357 7.55456C14.8511 7.63137 14.9368 7.74238 14.9796 7.87044C15.0235 7.99621 15.0248 8.13205 14.9831 8.25854C14.9414 8.38502 14.859 8.49566 14.7476 8.57463C14.6196 8.66017 14.4655 8.7025 14.3095 8.69491C12.4929 8.69376 10.6762 8.69351 8.85947 8.69417C7.79425 8.69417 6.72903 8.69417 5.6638 8.69417C5.5036 8.70005 5.34673 8.64941 5.22302 8.55188C5.09931 8.45435 5.0174 8.31674 4.99287 8.16521C4.96834 8.01369 5.00289 7.85883 5.08996 7.73008C5.17703 7.60134 5.31055 7.50769 5.4651 7.46696L5.46485 7.4672Z" fill="#F5F2EC"/>
</svg>
