<svg width="26" height="29" viewBox="0 0 26 29" fill="none" xmlns="http://www.w3.org/2000/svg">
    <path d="M12.5967 9.40603C12.6927 9.26076 12.7556 9.17093 12.8127 9.07917C14.4984 6.39966 17.6618 5.52876 20.1869 7.0495C22.6383 8.52642 23.4887 11.9645 21.856 14.5912C21.0072 15.9217 19.9684 17.1184 18.7733 18.1428C16.952 19.7282 14.9603 21.1165 13.0207 22.5627C12.9156 22.6325 12.7956 22.6763 12.6705 22.6905C12.5454 22.7048 12.4188 22.6891 12.3009 22.6448C9.44245 20.7391 6.6618 18.7309 4.37499 16.1175C3.10152 14.6612 2.32549 13.0129 2.56497 11.0091C2.83949 8.71236 4.31524 6.98558 6.42352 6.47229C7.49032 6.20932 8.61138 6.28281 9.63549 6.68285C10.6596 7.08289 11.5374 7.79024 12.1506 8.70946C12.291 8.91792 12.422 9.13292 12.5967 9.40603Z" fill="#EAE7E2"/>
</svg>
