<svg width="20" height="23" viewBox="0 0 20 23" fill="none" xmlns="http://www.w3.org/2000/svg">
<path d="M9.99051 7.45995C10.0666 7.34474 10.1165 7.2735 10.1618 7.20072C11.4987 5.07559 14.0076 4.38488 16.0103 5.59098C17.9545 6.76233 18.629 9.48907 17.3341 11.5723C16.6609 12.6275 15.837 13.5767 14.8892 14.3891C13.4447 15.6465 11.8651 16.7476 10.3268 17.8945C10.2434 17.9499 10.1482 17.9846 10.049 17.9959C9.94984 18.0073 9.8494 17.9948 9.75586 17.9596C7.48885 16.4482 5.28351 14.8556 3.46983 12.7829C2.45984 11.6278 1.84437 10.3205 2.0343 8.73134C2.25202 6.9098 3.42244 5.54029 5.09453 5.13319C5.94061 4.92463 6.82973 4.98291 7.64194 5.30019C8.45416 5.61746 9.1504 6.17846 9.63672 6.9075C9.74805 7.07283 9.85196 7.24335 9.99051 7.45995Z" fill="#EAE7E2"/>
</svg>
