<svg width="294" height="270" viewBox="0 0 294 270" fill="none" xmlns="http://www.w3.org/2000/svg">
<path d="M19.585 46.1683H274.869V223.386H19.585V46.1683Z" fill="#F7F7F7" stroke="#DBDBDB"/>
<path d="M20.8414 223.832L147 88.0612L273.159 223.832H20.8414Z" fill="#F6F6F6" stroke="#DBDBDB"/>
<path d="M273.159 46.1683L147 181.939L20.8414 46.1683L273.159 46.1683Z" fill="#F8F8F8" stroke="#DBDBDB"/>
<ellipse cx="269.5" cy="50.4958" rx="17.5" ry="17.1588" fill="#B9CBD9"/>
<path d="M268.45 53.517L267.7 41.517C267.7 41.037 267.76 40.637 267.88 40.317C268 39.977 268.17 39.727 268.39 39.567C268.63 39.387 268.91 39.297 269.23 39.297C269.55 39.297 269.82 39.387 270.04 39.567C270.26 39.727 270.43 39.997 270.55 40.377C270.69 40.737 270.76 41.217 270.76 41.817L269.95 53.517H268.45ZM269.17 59.667C268.69 59.667 268.27 59.497 267.91 59.157C267.57 58.817 267.4 58.407 267.4 57.927C267.4 57.447 267.57 57.027 267.91 56.667C268.27 56.307 268.69 56.127 269.17 56.127C269.65 56.127 270.07 56.307 270.43 56.667C270.79 57.027 270.97 57.447 270.97 57.927C270.97 58.387 270.79 58.797 270.43 59.157C270.07 59.497 269.65 59.667 269.17 59.667Z" fill="#EAE7E2"/>
</svg>
