<svg width="288" height="292" viewBox="0 0 288 292" fill="none" xmlns="http://www.w3.org/2000/svg">
    <rect width="288" height="292" fill="#EAE7E2"/>
    <path d="M93.16 93V88.08L89.4 80.54H91.5L94.22 86.02L96.66 80.54H98.66L95.18 88.08V93H93.16ZM104 93.2C103.16 93.2 102.413 93 101.76 92.6C101.107 92.1867 100.587 91.62 100.2 90.9C99.8133 90.1667 99.62 89.3267 99.62 88.38C99.62 87.4467 99.8133 86.62 100.2 85.9C100.587 85.1667 101.107 84.5933 101.76 84.18C102.413 83.7533 103.16 83.54 104 83.54C104.827 83.54 105.567 83.7533 106.22 84.18C106.887 84.5933 107.413 85.1667 107.8 85.9C108.187 86.62 108.38 87.4467 108.38 88.38C108.38 89.3133 108.187 90.1467 107.8 90.88C107.413 91.6 106.887 92.1667 106.22 92.58C105.567 92.9933 104.827 93.2 104 93.2ZM104 91.58C104.453 91.58 104.853 91.4467 105.2 91.18C105.56 90.9 105.84 90.52 106.04 90.04C106.24 89.56 106.34 89 106.34 88.36C106.34 87.7067 106.24 87.14 106.04 86.66C105.84 86.18 105.56 85.8067 105.2 85.54C104.853 85.2733 104.453 85.14 104 85.14C103.547 85.14 103.14 85.2733 102.78 85.54C102.433 85.8067 102.16 86.18 101.96 86.66C101.76 87.14 101.66 87.7067 101.66 88.36C101.66 89 101.76 89.56 101.96 90.04C102.16 90.52 102.433 90.9 102.78 91.18C103.14 91.4467 103.547 91.58 104 91.58ZM113.3 93.22C112.927 93.22 112.573 93.1667 112.24 93.06C111.92 92.9667 111.627 92.8133 111.36 92.6C111.093 92.3867 110.86 92.12 110.66 91.8C110.473 91.48 110.327 91.0933 110.22 90.64C110.127 90.1867 110.08 89.6733 110.08 89.1L110.1 83.74H112.06V89.1C112.06 89.5667 112.1 89.9667 112.18 90.3C112.273 90.62 112.393 90.88 112.54 91.08C112.7 91.28 112.88 91.4267 113.08 91.52C113.28 91.6 113.493 91.64 113.72 91.64C114.013 91.64 114.287 91.5867 114.54 91.48C114.793 91.3733 115.013 91.2133 115.2 91C115.4 90.7733 115.547 90.4933 115.64 90.16C115.747 89.8133 115.8 89.4133 115.8 88.96V83.74H117.8V91.54C117.8 91.8067 117.807 92.06 117.82 92.3C117.847 92.5267 117.907 92.76 118 93H116.14C116.073 92.8533 116.027 92.7133 116 92.58C115.973 92.4333 115.953 92.2933 115.94 92.16C115.94 92.0133 115.94 91.8667 115.94 91.72C115.807 91.9733 115.64 92.1933 115.44 92.38C115.253 92.5667 115.04 92.7267 114.8 92.86C114.573 92.98 114.333 93.0667 114.08 93.12C113.84 93.1867 113.58 93.22 113.3 93.22ZM130.22 79.62H132.18H132.38V79.8C132.3 79.88 132.247 79.9667 132.22 80.06C132.207 80.1533 132.2 80.3133 132.2 80.54V85.1C132.427 84.7667 132.693 84.4867 133 84.26C133.32 84.02 133.647 83.84 133.98 83.72C134.327 83.5867 134.673 83.52 135.02 83.52C135.607 83.52 136.113 83.6533 136.54 83.92C136.98 84.1867 137.32 84.6067 137.56 85.18C137.8 85.74 137.92 86.4867 137.92 87.42V93H135.96V87.44C135.96 86.8667 135.9 86.4133 135.78 86.08C135.66 85.7333 135.493 85.4867 135.28 85.34C135.067 85.18 134.813 85.1 134.52 85.1C134.28 85.1 134.047 85.14 133.82 85.22C133.607 85.3 133.4 85.4133 133.2 85.56C133 85.6933 132.827 85.8667 132.68 86.08C132.533 86.2933 132.413 86.5333 132.32 86.8C132.24 87.0667 132.2 87.36 132.2 87.68V93H130.22V79.62ZM143.04 93.22C142.013 93.22 141.213 92.9867 140.64 92.52C140.08 92.04 139.8 91.42 139.8 90.66C139.8 90.1533 139.913 89.7 140.14 89.3C140.38 88.8867 140.713 88.5333 141.14 88.24C141.58 87.9467 142.107 87.72 142.72 87.56C143.333 87.3867 144.027 87.3 144.8 87.3C144.96 87.3 145.127 87.3067 145.3 87.32C145.487 87.32 145.68 87.3267 145.88 87.34C146.093 87.3533 146.307 87.3667 146.52 87.38L146.58 88.8C146.393 88.7733 146.193 88.7533 145.98 88.74C145.78 88.7267 145.58 88.72 145.38 88.72C145.18 88.72 144.993 88.72 144.82 88.72C144.3 88.72 143.847 88.76 143.46 88.84C143.087 88.9067 142.773 89.0133 142.52 89.16C142.28 89.3067 142.1 89.4867 141.98 89.7C141.86 89.9133 141.8 90.16 141.8 90.44C141.8 90.6667 141.84 90.8667 141.92 91.04C142 91.2 142.107 91.3267 142.24 91.42C142.387 91.5133 142.553 91.5867 142.74 91.64C142.94 91.68 143.153 91.7 143.38 91.7C143.82 91.7 144.207 91.6267 144.54 91.48C144.873 91.3333 145.153 91.12 145.38 90.84C145.62 90.5467 145.8 90.1867 145.92 89.76C146.04 89.32 146.1 88.8067 146.1 88.22C146.1 87.4067 146.007 86.7733 145.82 86.32C145.647 85.8667 145.387 85.5533 145.04 85.38C144.693 85.2067 144.26 85.12 143.74 85.12C143.313 85.12 142.9 85.1933 142.5 85.34C142.113 85.4733 141.733 85.7267 141.36 86.1L140.3 84.9C140.807 84.42 141.36 84.0733 141.96 83.86C142.573 83.6467 143.2 83.54 143.84 83.54C144.427 83.54 144.967 83.6133 145.46 83.76C145.967 83.8933 146.407 84.12 146.78 84.44C147.167 84.76 147.46 85.1933 147.66 85.74C147.873 86.2867 147.98 86.98 147.98 87.82V93H145.9V91.86C145.727 92.1267 145.533 92.3533 145.32 92.54C145.107 92.7133 144.873 92.8533 144.62 92.96C144.38 93.0533 144.127 93.12 143.86 93.16C143.593 93.2 143.32 93.22 143.04 93.22ZM153.18 93L149.66 83.74H151.72L154.28 90.7H153.98L155.36 87.44C155.627 86.76 155.847 86.1133 156.02 85.5C156.193 84.8867 156.307 84.3 156.36 83.74H158.22C158.14 84.3267 157.987 84.9533 157.76 85.62C157.547 86.2733 157.293 86.9533 157 87.66L154.76 93H153.18ZM164.42 93.22C163.753 93.22 163.14 93.1133 162.58 92.9C162.02 92.6867 161.533 92.38 161.12 91.98C160.72 91.5667 160.407 91.06 160.18 90.46C159.953 89.86 159.84 89.18 159.84 88.42C159.84 87.6467 159.953 86.96 160.18 86.36C160.407 85.7467 160.713 85.2333 161.1 84.82C161.5 84.4067 161.96 84.0867 162.48 83.86C163.013 83.6333 163.58 83.52 164.18 83.52C164.7 83.52 165.193 83.6133 165.66 83.8C166.14 83.9867 166.553 84.2667 166.9 84.64C167.26 85 167.54 85.46 167.74 86.02C167.953 86.58 168.06 87.2333 168.06 87.98C168.06 88.1133 168.06 88.2667 168.06 88.44C168.06 88.6 168.053 88.74 168.04 88.86H161.76C161.787 89.34 161.88 89.76 162.04 90.12C162.2 90.4667 162.4 90.7533 162.64 90.98C162.893 91.2067 163.18 91.3733 163.5 91.48C163.82 91.5867 164.153 91.64 164.5 91.64C164.807 91.64 165.087 91.6133 165.34 91.56C165.607 91.4933 165.86 91.3933 166.1 91.26C166.34 91.1267 166.56 90.9467 166.76 90.72L167.8 91.74C167.52 92.0733 167.207 92.3533 166.86 92.58C166.513 92.7933 166.133 92.9533 165.72 93.06C165.32 93.1667 164.887 93.22 164.42 93.22ZM161.8 87.36H166.12C166.12 86.9867 166.073 86.66 165.98 86.38C165.887 86.1 165.747 85.86 165.56 85.66C165.387 85.46 165.173 85.3133 164.92 85.22C164.667 85.1133 164.387 85.06 164.08 85.06C163.787 85.06 163.513 85.1067 163.26 85.2C163.02 85.2933 162.8 85.4333 162.6 85.62C162.4 85.8067 162.227 86.0467 162.08 86.34C161.947 86.62 161.853 86.96 161.8 87.36ZM170.2 93V83.74H172.2V85.16C172.427 84.8267 172.68 84.54 172.96 84.3C173.24 84.06 173.553 83.8733 173.9 83.74C174.247 83.5933 174.62 83.52 175.02 83.52C175.54 83.52 176.02 83.6533 176.46 83.92C176.9 84.1867 177.253 84.6067 177.52 85.18C177.787 85.74 177.92 86.4867 177.92 87.42V93H175.94V87.44C175.94 86.8933 175.88 86.4467 175.76 86.1C175.64 85.7533 175.467 85.5 175.24 85.34C175.027 85.18 174.767 85.1 174.46 85.1C174.193 85.1 173.927 85.16 173.66 85.28C173.393 85.4 173.147 85.5667 172.92 85.78C172.707 85.98 172.533 86.2333 172.4 86.54C172.267 86.8333 172.2 87.1667 172.2 87.54V93H170.2ZM183.04 86.02L182.08 85.14C182.333 84.9 182.553 84.6667 182.74 84.44C182.927 84.2 183.073 83.9667 183.18 83.74C183.3 83.5133 183.36 83.3 183.36 83.1C183.36 82.94 183.307 82.8 183.2 82.68C183.107 82.56 182.993 82.4467 182.86 82.34C182.74 82.2333 182.633 82.1067 182.54 81.96C182.447 81.8133 182.4 81.64 182.4 81.44C182.4 81.0667 182.527 80.7533 182.78 80.5C183.033 80.2333 183.367 80.1 183.78 80.1C184.18 80.1 184.54 80.2667 184.86 80.6C185.18 80.9333 185.34 81.36 185.34 81.88C185.34 82.2667 185.253 82.6867 185.08 83.14C184.907 83.58 184.653 84.04 184.32 84.52C183.987 85 183.56 85.5 183.04 86.02ZM194.98 93.18C194.433 93.18 193.96 93.0933 193.56 92.92C193.173 92.7333 192.86 92.44 192.62 92.04C192.393 91.64 192.233 91.12 192.14 90.48C192.047 89.84 192.013 89.06 192.04 88.14L192.3 81.5L194.34 81.24L194.54 81.22L194.56 81.4C194.493 81.4933 194.433 81.5867 194.38 81.68C194.34 81.7733 194.307 81.9333 194.28 82.16L194.08 84.74L194.16 84.96L194.02 88.14C193.98 89.0467 194.007 89.7533 194.1 90.26C194.193 90.7533 194.353 91.1 194.58 91.3C194.807 91.4867 195.08 91.58 195.4 91.58C195.827 91.58 196.207 91.4933 196.54 91.32C196.887 91.1467 197.227 90.9333 197.56 90.68L198 92.16C197.547 92.4933 197.073 92.7467 196.58 92.92C196.087 93.0933 195.553 93.18 194.98 93.18ZM190.24 83.74H197.22L197.2 85.34H190.24V83.74ZM50.04 117.34V104.74H52.02V106.22C52.1933 105.82 52.4133 105.5 52.68 105.26C52.96 105.007 53.2667 104.827 53.6 104.72C53.9333 104.6 54.2933 104.54 54.68 104.54C55.1867 104.54 55.66 104.647 56.1 104.86C56.5533 105.06 56.9533 105.36 57.3 105.76C57.6467 106.16 57.92 106.66 58.12 107.26C58.32 107.86 58.42 108.56 58.42 109.36C58.42 110.173 58.3133 110.887 58.1 111.5C57.8867 112.113 57.6 112.627 57.24 113.04C56.8933 113.44 56.4933 113.74 56.04 113.94C55.5867 114.14 55.12 114.24 54.64 114.24C54.3067 114.24 53.9733 114.193 53.64 114.1C53.32 114.02 53.0267 113.893 52.76 113.72C52.4933 113.533 52.26 113.32 52.06 113.08V117.34H50.04ZM54.14 112.64C54.4467 112.64 54.7333 112.587 55 112.48C55.2667 112.36 55.5067 112.18 55.72 111.94C55.9333 111.687 56.1 111.347 56.22 110.92C56.34 110.48 56.4 109.947 56.4 109.32C56.4 108.653 56.3133 108.087 56.14 107.62C55.98 107.153 55.74 106.793 55.42 106.54C55.1133 106.287 54.74 106.153 54.3 106.14C53.9667 106.127 53.66 106.187 53.38 106.32C53.1 106.44 52.86 106.64 52.66 106.92C52.46 107.187 52.3067 107.547 52.2 108C52.1067 108.44 52.06 108.967 52.06 109.58C52.06 109.993 52.0867 110.367 52.14 110.7C52.2067 111.02 52.3 111.307 52.42 111.56C52.54 111.8 52.68 112 52.84 112.16C53.0133 112.32 53.2067 112.44 53.42 112.52C53.6467 112.6 53.8867 112.64 54.14 112.64ZM64 114.2C63.16 114.2 62.4133 114 61.76 113.6C61.1067 113.187 60.5867 112.62 60.2 111.9C59.8133 111.167 59.62 110.327 59.62 109.38C59.62 108.447 59.8133 107.62 60.2 106.9C60.5867 106.167 61.1067 105.593 61.76 105.18C62.4133 104.753 63.16 104.54 64 104.54C64.8267 104.54 65.5667 104.753 66.22 105.18C66.8867 105.593 67.4133 106.167 67.8 106.9C68.1867 107.62 68.38 108.447 68.38 109.38C68.38 110.313 68.1867 111.147 67.8 111.88C67.4133 112.6 66.8867 113.167 66.22 113.58C65.5667 113.993 64.8267 114.2 64 114.2ZM64 112.58C64.4533 112.58 64.8533 112.447 65.2 112.18C65.56 111.9 65.84 111.52 66.04 111.04C66.24 110.56 66.34 110 66.34 109.36C66.34 108.707 66.24 108.14 66.04 107.66C65.84 107.18 65.56 106.807 65.2 106.54C64.8533 106.273 64.4533 106.14 64 106.14C63.5467 106.14 63.14 106.273 62.78 106.54C62.4333 106.807 62.16 107.18 61.96 107.66C61.76 108.14 61.66 108.707 61.66 109.36C61.66 110 61.76 110.56 61.96 111.04C62.16 111.52 62.4333 111.9 62.78 112.18C63.14 112.447 63.5467 112.58 64 112.58ZM74.14 114.22C73.58 114.22 73.0533 114.167 72.56 114.06C72.0667 113.953 71.6 113.793 71.16 113.58C70.7333 113.367 70.34 113.093 69.98 112.76L70.9 111.08L71.02 110.9L71.16 110.98C71.1867 111.087 71.22 111.2 71.26 111.32C71.3 111.427 71.3933 111.56 71.54 111.72C71.86 112 72.2267 112.227 72.64 112.4C73.0533 112.56 73.56 112.64 74.16 112.64C74.5733 112.64 74.92 112.593 75.2 112.5C75.4933 112.393 75.72 112.253 75.88 112.08C76.04 111.893 76.12 111.687 76.12 111.46C76.12 111.287 76.0733 111.14 75.98 111.02C75.9 110.887 75.7733 110.767 75.6 110.66C75.4267 110.54 75.2 110.427 74.92 110.32C74.64 110.2 74.3 110.087 73.9 109.98C73.22 109.78 72.6267 109.553 72.12 109.3C71.6133 109.033 71.22 108.72 70.94 108.36C70.66 108 70.52 107.573 70.52 107.08C70.52 106.587 70.66 106.153 70.94 105.78C71.2333 105.393 71.6467 105.087 72.18 104.86C72.7133 104.633 73.3467 104.52 74.08 104.52C74.48 104.52 74.8533 104.553 75.2 104.62C75.56 104.673 75.8867 104.76 76.18 104.88C76.4867 105 76.7733 105.153 77.04 105.34C77.3067 105.513 77.56 105.72 77.8 105.96L76.78 107.32L76.66 107.48L76.52 107.36C76.5067 107.253 76.4733 107.153 76.42 107.06C76.38 106.967 76.2867 106.847 76.14 106.7C75.8467 106.487 75.5267 106.327 75.18 106.22C74.8333 106.113 74.48 106.06 74.12 106.06C73.6533 106.06 73.24 106.14 72.88 106.3C72.5333 106.46 72.36 106.7 72.36 107.02C72.36 107.207 72.4333 107.38 72.58 107.54C72.74 107.7 72.9933 107.86 73.34 108.02C73.6867 108.167 74.16 108.32 74.76 108.48C75.52 108.68 76.1333 108.913 76.6 109.18C77.0667 109.433 77.4067 109.733 77.62 110.08C77.8467 110.427 77.96 110.833 77.96 111.3C77.96 111.82 77.8133 112.307 77.52 112.76C77.24 113.2 76.8133 113.553 76.24 113.82C75.6667 114.087 74.9667 114.22 74.14 114.22ZM84.98 114.18C84.4333 114.18 83.96 114.093 83.56 113.92C83.1733 113.733 82.86 113.44 82.62 113.04C82.3933 112.64 82.2333 112.12 82.14 111.48C82.0467 110.84 82.0133 110.06 82.04 109.14L82.3 102.5L84.34 102.24L84.54 102.22L84.56 102.4C84.4933 102.493 84.4333 102.587 84.38 102.68C84.34 102.773 84.3067 102.933 84.28 103.16L84.08 105.74L84.16 105.96L84.02 109.14C83.98 110.047 84.0067 110.753 84.1 111.26C84.1933 111.753 84.3533 112.1 84.58 112.3C84.8067 112.487 85.08 112.58 85.4 112.58C85.8267 112.58 86.2067 112.493 86.54 112.32C86.8867 112.147 87.2267 111.933 87.56 111.68L88 113.16C87.5467 113.493 87.0733 113.747 86.58 113.92C86.0867 114.093 85.5533 114.18 84.98 114.18ZM80.24 104.74H87.22L87.2 106.34H80.24V104.74ZM94.42 114.22C93.7533 114.22 93.14 114.113 92.58 113.9C92.02 113.687 91.5333 113.38 91.12 112.98C90.72 112.567 90.4067 112.06 90.18 111.46C89.9533 110.86 89.84 110.18 89.84 109.42C89.84 108.647 89.9533 107.96 90.18 107.36C90.4067 106.747 90.7133 106.233 91.1 105.82C91.5 105.407 91.96 105.087 92.48 104.86C93.0133 104.633 93.58 104.52 94.18 104.52C94.7 104.52 95.1933 104.613 95.66 104.8C96.14 104.987 96.5533 105.267 96.9 105.64C97.26 106 97.54 106.46 97.74 107.02C97.9533 107.58 98.06 108.233 98.06 108.98C98.06 109.113 98.06 109.267 98.06 109.44C98.06 109.6 98.0533 109.74 98.04 109.86H91.76C91.7867 110.34 91.88 110.76 92.04 111.12C92.2 111.467 92.4 111.753 92.64 111.98C92.8933 112.207 93.18 112.373 93.5 112.48C93.82 112.587 94.1533 112.64 94.5 112.64C94.8067 112.64 95.0867 112.613 95.34 112.56C95.6067 112.493 95.86 112.393 96.1 112.26C96.34 112.127 96.56 111.947 96.76 111.72L97.8 112.74C97.52 113.073 97.2067 113.353 96.86 113.58C96.5133 113.793 96.1333 113.953 95.72 114.06C95.32 114.167 94.8867 114.22 94.42 114.22ZM91.8 108.36H96.12C96.12 107.987 96.0733 107.66 95.98 107.38C95.8867 107.1 95.7467 106.86 95.56 106.66C95.3867 106.46 95.1733 106.313 94.92 106.22C94.6667 106.113 94.3867 106.06 94.08 106.06C93.7867 106.06 93.5133 106.107 93.26 106.2C93.02 106.293 92.8 106.433 92.6 106.62C92.4 106.807 92.2267 107.047 92.08 107.34C91.9467 107.62 91.8533 107.96 91.8 108.36ZM103.56 114.22C103.067 114.22 102.587 114.12 102.12 113.92C101.667 113.707 101.26 113.4 100.9 113C100.54 112.6 100.253 112.093 100.04 111.48C99.84 110.853 99.74 110.133 99.74 109.32C99.74 108.493 99.84 107.78 100.04 107.18C100.253 106.58 100.54 106.087 100.9 105.7C101.26 105.3 101.673 105.007 102.14 104.82C102.607 104.62 103.093 104.52 103.6 104.52C103.96 104.52 104.287 104.567 104.58 104.66C104.887 104.753 105.16 104.893 105.4 105.08C105.64 105.267 105.833 105.5 105.98 105.78V100.62H107.92H108.1V100.8C108.033 100.88 107.987 100.967 107.96 101.06C107.933 101.153 107.927 101.313 107.94 101.54V112.7C107.94 112.913 107.947 113.133 107.96 113.36C107.987 113.573 108.047 113.787 108.14 114H106.18C106.113 113.853 106.067 113.72 106.04 113.6C106.013 113.48 106 113.36 106 113.24C106 113.12 106 112.993 106 112.86C105.813 113.14 105.6 113.387 105.36 113.6C105.12 113.8 104.847 113.953 104.54 114.06C104.233 114.167 103.907 114.22 103.56 114.22ZM103.9 112.58C104.26 112.58 104.567 112.507 104.82 112.36C105.073 112.213 105.28 112 105.44 111.72C105.6 111.44 105.72 111.1 105.8 110.7C105.88 110.3 105.92 109.847 105.92 109.34C105.92 108.66 105.847 108.08 105.7 107.6C105.553 107.107 105.32 106.733 105 106.48C104.693 106.213 104.3 106.08 103.82 106.08C103.473 106.08 103.167 106.153 102.9 106.3C102.633 106.447 102.407 106.66 102.22 106.94C102.047 107.207 101.913 107.533 101.82 107.92C101.727 108.307 101.68 108.74 101.68 109.22C101.68 109.9 101.773 110.493 101.96 111C102.16 111.507 102.427 111.9 102.76 112.18C103.093 112.447 103.473 112.58 103.9 112.58ZM123.04 114.22C122.013 114.22 121.213 113.987 120.64 113.52C120.08 113.04 119.8 112.42 119.8 111.66C119.8 111.153 119.913 110.7 120.14 110.3C120.38 109.887 120.713 109.533 121.14 109.24C121.58 108.947 122.107 108.72 122.72 108.56C123.333 108.387 124.027 108.3 124.8 108.3C124.96 108.3 125.127 108.307 125.3 108.32C125.487 108.32 125.68 108.327 125.88 108.34C126.093 108.353 126.307 108.367 126.52 108.38L126.58 109.8C126.393 109.773 126.193 109.753 125.98 109.74C125.78 109.727 125.58 109.72 125.38 109.72C125.18 109.72 124.993 109.72 124.82 109.72C124.3 109.72 123.847 109.76 123.46 109.84C123.087 109.907 122.773 110.013 122.52 110.16C122.28 110.307 122.1 110.487 121.98 110.7C121.86 110.913 121.8 111.16 121.8 111.44C121.8 111.667 121.84 111.867 121.92 112.04C122 112.2 122.107 112.327 122.24 112.42C122.387 112.513 122.553 112.587 122.74 112.64C122.94 112.68 123.153 112.7 123.38 112.7C123.82 112.7 124.207 112.627 124.54 112.48C124.873 112.333 125.153 112.12 125.38 111.84C125.62 111.547 125.8 111.187 125.92 110.76C126.04 110.32 126.1 109.807 126.1 109.22C126.1 108.407 126.007 107.773 125.82 107.32C125.647 106.867 125.387 106.553 125.04 106.38C124.693 106.207 124.26 106.12 123.74 106.12C123.313 106.12 122.9 106.193 122.5 106.34C122.113 106.473 121.733 106.727 121.36 107.1L120.3 105.9C120.807 105.42 121.36 105.073 121.96 104.86C122.573 104.647 123.2 104.54 123.84 104.54C124.427 104.54 124.967 104.613 125.46 104.76C125.967 104.893 126.407 105.12 126.78 105.44C127.167 105.76 127.46 106.193 127.66 106.74C127.873 107.287 127.98 107.98 127.98 108.82V114H125.9V112.86C125.727 113.127 125.533 113.353 125.32 113.54C125.107 113.713 124.873 113.853 124.62 113.96C124.38 114.053 124.127 114.12 123.86 114.16C123.593 114.2 123.32 114.22 123.04 114.22ZM130.2 114V104.74H132.2V106.16C132.427 105.827 132.68 105.54 132.96 105.3C133.24 105.06 133.553 104.873 133.9 104.74C134.247 104.593 134.62 104.52 135.02 104.52C135.54 104.52 136.02 104.653 136.46 104.92C136.9 105.187 137.253 105.607 137.52 106.18C137.787 106.74 137.92 107.487 137.92 108.42V114H135.94V108.44C135.94 107.893 135.88 107.447 135.76 107.1C135.64 106.753 135.467 106.5 135.24 106.34C135.027 106.18 134.767 106.1 134.46 106.1C134.193 106.1 133.927 106.16 133.66 106.28C133.393 106.4 133.147 106.567 132.92 106.78C132.707 106.98 132.533 107.233 132.4 107.54C132.267 107.833 132.2 108.167 132.2 108.54V114H130.2ZM141.52 117.5C141.08 117.5 140.687 117.427 140.34 117.28C139.993 117.147 139.66 116.94 139.34 116.66L140.08 115.3L140.18 115.14L140.32 115.22C140.36 115.313 140.407 115.4 140.46 115.48C140.527 115.573 140.653 115.687 140.84 115.82C140.947 115.86 141.06 115.887 141.18 115.9C141.3 115.927 141.42 115.94 141.54 115.94C141.847 115.94 142.107 115.86 142.32 115.7C142.533 115.553 142.72 115.32 142.88 115C143.053 114.68 143.227 114.267 143.4 113.76L145.32 108.16C145.52 107.573 145.693 107.007 145.84 106.46C146 105.9 146.1 105.327 146.14 104.74H148.02C147.967 105.353 147.827 105.987 147.6 106.64C147.387 107.293 147.167 107.927 146.94 108.54L144.64 114.88C144.293 115.853 143.86 116.533 143.34 116.92C142.82 117.307 142.213 117.5 141.52 117.5ZM139.72 104.74H141.74L144.54 112.02L143.54 114.22L139.72 104.74ZM154.98 114.18C154.433 114.18 153.96 114.093 153.56 113.92C153.173 113.733 152.86 113.44 152.62 113.04C152.393 112.64 152.233 112.12 152.14 111.48C152.047 110.84 152.013 110.06 152.04 109.14L152.3 102.5L154.34 102.24L154.54 102.22L154.56 102.4C154.493 102.493 154.433 102.587 154.38 102.68C154.34 102.773 154.307 102.933 154.28 103.16L154.08 105.74L154.16 105.96L154.02 109.14C153.98 110.047 154.007 110.753 154.1 111.26C154.193 111.753 154.353 112.1 154.58 112.3C154.807 112.487 155.08 112.58 155.4 112.58C155.827 112.58 156.207 112.493 156.54 112.32C156.887 112.147 157.227 111.933 157.56 111.68L158 113.16C157.547 113.493 157.073 113.747 156.58 113.92C156.087 114.093 155.553 114.18 154.98 114.18ZM150.24 104.74H157.22L157.2 106.34H150.24V104.74ZM160.22 100.62H162.18H162.38V100.8C162.3 100.88 162.247 100.967 162.22 101.06C162.207 101.153 162.2 101.313 162.2 101.54V106.1C162.427 105.767 162.693 105.487 163 105.26C163.32 105.02 163.647 104.84 163.98 104.72C164.327 104.587 164.673 104.52 165.02 104.52C165.607 104.52 166.113 104.653 166.54 104.92C166.98 105.187 167.32 105.607 167.56 106.18C167.8 106.74 167.92 107.487 167.92 108.42V114H165.96V108.44C165.96 107.867 165.9 107.413 165.78 107.08C165.66 106.733 165.493 106.487 165.28 106.34C165.067 106.18 164.813 106.1 164.52 106.1C164.28 106.1 164.047 106.14 163.82 106.22C163.607 106.3 163.4 106.413 163.2 106.56C163 106.693 162.827 106.867 162.68 107.08C162.533 107.293 162.413 107.533 162.32 107.8C162.24 108.067 162.2 108.36 162.2 108.68V114H160.22V100.62ZM170.8 114V112.42H173.1V106.32H170.9V104.74H175.1V112.42H177.2V114H170.8ZM173.98 103.08C173.62 103.08 173.313 102.96 173.06 102.72C172.82 102.467 172.7 102.173 172.7 101.84C172.7 101.48 172.82 101.18 173.06 100.94C173.3 100.7 173.607 100.58 173.98 100.58C174.327 100.58 174.627 100.707 174.88 100.96C175.147 101.213 175.28 101.507 175.28 101.84C175.28 102.173 175.147 102.467 174.88 102.72C174.627 102.96 174.327 103.08 173.98 103.08ZM180.2 114V104.74H182.2V106.16C182.427 105.827 182.68 105.54 182.96 105.3C183.24 105.06 183.553 104.873 183.9 104.74C184.247 104.593 184.62 104.52 185.02 104.52C185.54 104.52 186.02 104.653 186.46 104.92C186.9 105.187 187.253 105.607 187.52 106.18C187.787 106.74 187.92 107.487 187.92 108.42V114H185.94V108.44C185.94 107.893 185.88 107.447 185.76 107.1C185.64 106.753 185.467 106.5 185.24 106.34C185.027 106.18 184.767 106.1 184.46 106.1C184.193 106.1 183.927 106.16 183.66 106.28C183.393 106.4 183.147 106.567 182.92 106.78C182.707 106.98 182.533 107.233 182.4 107.54C182.267 107.833 182.2 108.167 182.2 108.54V114H180.2ZM193.82 117.52C193.18 117.52 192.6 117.467 192.08 117.36C191.56 117.253 191.113 117.093 190.74 116.88C190.38 116.68 190.107 116.427 189.92 116.12C189.733 115.827 189.64 115.493 189.64 115.12C189.64 114.773 189.72 114.46 189.88 114.18C190.04 113.9 190.253 113.66 190.52 113.46C190.787 113.247 191.08 113.087 191.4 112.98L192.28 113.38C192.067 113.513 191.88 113.647 191.72 113.78C191.56 113.913 191.433 114.06 191.34 114.22C191.26 114.393 191.22 114.593 191.22 114.82C191.22 115.02 191.287 115.193 191.42 115.34C191.553 115.487 191.74 115.607 191.98 115.7C192.22 115.793 192.507 115.867 192.84 115.92C193.173 115.973 193.547 116 193.96 116C194.507 116 194.96 115.947 195.32 115.84C195.68 115.747 195.947 115.607 196.12 115.42C196.307 115.233 196.4 115.02 196.4 114.78C196.4 114.54 196.347 114.347 196.24 114.2C196.133 114.067 195.933 113.967 195.64 113.9C195.347 113.82 194.92 113.78 194.36 113.78C193.907 113.78 193.473 113.767 193.06 113.74C192.66 113.7 192.287 113.633 191.94 113.54C191.607 113.447 191.313 113.327 191.06 113.18C190.807 113.033 190.607 112.853 190.46 112.64C190.327 112.413 190.26 112.147 190.26 111.84C190.26 111.44 190.38 111.08 190.62 110.76C190.86 110.427 191.16 110.127 191.52 109.86L192.42 110.42C192.3 110.553 192.193 110.667 192.1 110.76C192.007 110.853 191.933 110.947 191.88 111.04C191.827 111.12 191.8 111.22 191.8 111.34C191.8 111.513 191.9 111.66 192.1 111.78C192.3 111.9 192.62 111.987 193.06 112.04C193.513 112.093 194.113 112.12 194.86 112.12C195.487 112.12 196.007 112.187 196.42 112.32C196.847 112.44 197.18 112.613 197.42 112.84C197.66 113.067 197.827 113.327 197.92 113.62C198.027 113.9 198.08 114.213 198.08 114.56C198.08 114.933 198 115.293 197.84 115.64C197.68 116 197.427 116.32 197.08 116.6C196.747 116.88 196.307 117.1 195.76 117.26C195.227 117.433 194.58 117.52 193.82 117.52ZM193.56 110.88C192.907 110.88 192.327 110.74 191.82 110.46C191.313 110.167 190.913 109.78 190.62 109.3C190.34 108.82 190.2 108.28 190.2 107.68C190.2 107.08 190.34 106.54 190.62 106.06C190.913 105.567 191.313 105.18 191.82 104.9C192.327 104.607 192.907 104.46 193.56 104.46C194.227 104.46 194.813 104.607 195.32 104.9C195.827 105.18 196.22 105.567 196.5 106.06C196.793 106.54 196.94 107.08 196.94 107.68C196.94 108.28 196.793 108.82 196.5 109.3C196.22 109.78 195.827 110.167 195.32 110.46C194.813 110.74 194.227 110.88 193.56 110.88ZM193.56 109.38C193.893 109.38 194.187 109.307 194.44 109.16C194.693 109.013 194.893 108.813 195.04 108.56C195.187 108.293 195.26 108 195.26 107.68C195.26 107.347 195.187 107.06 195.04 106.82C194.893 106.567 194.687 106.367 194.42 106.22C194.167 106.073 193.88 106 193.56 106C193.253 106 192.973 106.073 192.72 106.22C192.467 106.367 192.26 106.567 192.1 106.82C191.953 107.073 191.88 107.36 191.88 107.68C191.88 107.987 191.953 108.273 192.1 108.54C192.247 108.793 192.447 109 192.7 109.16C192.953 109.307 193.24 109.38 193.56 109.38ZM196.38 106.38L195.62 105.44C196.007 105.12 196.427 104.88 196.88 104.72C197.347 104.547 197.86 104.48 198.42 104.52L198.62 105.94C198.207 105.887 197.807 105.893 197.42 105.96C197.033 106.013 196.687 106.153 196.38 106.38ZM211.52 117.5C211.08 117.5 210.687 117.427 210.34 117.28C209.993 117.147 209.66 116.94 209.34 116.66L210.08 115.3L210.18 115.14L210.32 115.22C210.36 115.313 210.407 115.4 210.46 115.48C210.527 115.573 210.653 115.687 210.84 115.82C210.947 115.86 211.06 115.887 211.18 115.9C211.3 115.927 211.42 115.94 211.54 115.94C211.847 115.94 212.107 115.86 212.32 115.7C212.533 115.553 212.72 115.32 212.88 115C213.053 114.68 213.227 114.267 213.4 113.76L215.32 108.16C215.52 107.573 215.693 107.007 215.84 106.46C216 105.9 216.1 105.327 216.14 104.74H218.02C217.967 105.353 217.827 105.987 217.6 106.64C217.387 107.293 217.167 107.927 216.94 108.54L214.64 114.88C214.293 115.853 213.86 116.533 213.34 116.92C212.82 117.307 212.213 117.5 211.52 117.5ZM209.72 104.74H211.74L214.54 112.02L213.54 114.22L209.72 104.74ZM224.42 114.22C223.753 114.22 223.14 114.113 222.58 113.9C222.02 113.687 221.533 113.38 221.12 112.98C220.72 112.567 220.407 112.06 220.18 111.46C219.953 110.86 219.84 110.18 219.84 109.42C219.84 108.647 219.953 107.96 220.18 107.36C220.407 106.747 220.713 106.233 221.1 105.82C221.5 105.407 221.96 105.087 222.48 104.86C223.013 104.633 223.58 104.52 224.18 104.52C224.7 104.52 225.193 104.613 225.66 104.8C226.14 104.987 226.553 105.267 226.9 105.64C227.26 106 227.54 106.46 227.74 107.02C227.953 107.58 228.06 108.233 228.06 108.98C228.06 109.113 228.06 109.267 228.06 109.44C228.06 109.6 228.053 109.74 228.04 109.86H221.76C221.787 110.34 221.88 110.76 222.04 111.12C222.2 111.467 222.4 111.753 222.64 111.98C222.893 112.207 223.18 112.373 223.5 112.48C223.82 112.587 224.153 112.64 224.5 112.64C224.807 112.64 225.087 112.613 225.34 112.56C225.607 112.493 225.86 112.393 226.1 112.26C226.34 112.127 226.56 111.947 226.76 111.72L227.8 112.74C227.52 113.073 227.207 113.353 226.86 113.58C226.513 113.793 226.133 113.953 225.72 114.06C225.32 114.167 224.887 114.22 224.42 114.22ZM221.8 108.36H226.12C226.12 107.987 226.073 107.66 225.98 107.38C225.887 107.1 225.747 106.86 225.56 106.66C225.387 106.46 225.173 106.313 224.92 106.22C224.667 106.113 224.387 106.06 224.08 106.06C223.787 106.06 223.513 106.107 223.26 106.2C223.02 106.293 222.8 106.433 222.6 106.62C222.4 106.807 222.227 107.047 222.08 107.34C221.947 107.62 221.853 107.96 221.8 108.36ZM234.98 114.18C234.433 114.18 233.96 114.093 233.56 113.92C233.173 113.733 232.86 113.44 232.62 113.04C232.393 112.64 232.233 112.12 232.14 111.48C232.047 110.84 232.013 110.06 232.04 109.14L232.3 102.5L234.34 102.24L234.54 102.22L234.56 102.4C234.493 102.493 234.433 102.587 234.38 102.68C234.34 102.773 234.307 102.933 234.28 103.16L234.08 105.74L234.16 105.96L234.02 109.14C233.98 110.047 234.007 110.753 234.1 111.26C234.193 111.753 234.353 112.1 234.58 112.3C234.807 112.487 235.08 112.58 235.4 112.58C235.827 112.58 236.207 112.493 236.54 112.32C236.887 112.147 237.227 111.933 237.56 111.68L238 113.16C237.547 113.493 237.073 113.747 236.58 113.92C236.087 114.093 235.553 114.18 234.98 114.18ZM230.24 104.74H237.22L237.2 106.34H230.24V104.74Z" fill="#646261"/>
    <path d="M34.62 211.22C33.94 211.22 33.3 211.093 32.7 210.84C32.1133 210.587 31.5933 210.2 31.14 209.68C30.6867 209.16 30.3267 208.5 30.06 207.7C29.8067 206.9 29.68 205.947 29.68 204.84C29.68 203.867 29.7733 203.02 29.96 202.3C30.16 201.567 30.4267 200.953 30.76 200.46C31.0933 199.953 31.4733 199.553 31.9 199.26C32.3267 198.953 32.7733 198.733 33.24 198.6C33.7067 198.453 34.1733 198.38 34.64 198.38C35.5733 198.38 36.3667 198.6 37.02 199.04C37.6867 199.467 38.1867 200.06 38.52 200.82L37.18 201.72L37.02 201.82L36.92 201.68C36.9467 201.573 36.94 201.473 36.9 201.38C36.8733 201.273 36.8 201.133 36.68 200.96C36.3867 200.573 36.0733 200.313 35.74 200.18C35.4067 200.047 35.0667 199.98 34.72 199.98C34.2933 199.98 33.8867 200.087 33.5 200.3C33.1267 200.5 32.8 200.8 32.52 201.2C32.24 201.6 32.02 202.1 31.86 202.7C31.7 203.287 31.62 203.967 31.62 204.74C31.62 205.487 31.6933 206.16 31.84 206.76C32 207.347 32.2133 207.853 32.48 208.28C32.76 208.693 33.08 209.013 33.44 209.24C33.8133 209.453 34.2133 209.56 34.64 209.56C34.9733 209.56 35.28 209.513 35.56 209.42C35.84 209.327 36.1 209.173 36.34 208.96C36.58 208.733 36.7933 208.467 36.98 208.16L38.38 209.14C37.94 209.873 37.4133 210.407 36.8 210.74C36.1867 211.06 35.46 211.22 34.62 211.22ZM40.98 201.74H43.04L43 204.38L42.76 204.16C42.8267 203.76 42.9533 203.4 43.14 203.08C43.3267 202.747 43.5533 202.467 43.82 202.24C44.1 202.013 44.4067 201.84 44.74 201.72C45.0733 201.587 45.42 201.52 45.78 201.52C46.2867 201.52 46.7467 201.607 47.16 201.78C47.5733 201.953 47.9467 202.213 48.28 202.56L47.44 204.2L47.36 204.38L47.2 204.3C47.16 204.193 47.12 204.087 47.08 203.98C47.04 203.873 46.94 203.747 46.78 203.6C46.58 203.467 46.38 203.367 46.18 203.3C45.9933 203.233 45.7733 203.2 45.52 203.2C45.2 203.2 44.8867 203.26 44.58 203.38C44.2867 203.487 44.02 203.66 43.78 203.9C43.54 204.14 43.3467 204.447 43.2 204.82C43.0667 205.18 43 205.62 43 206.14V211.02H40.98V201.74ZM54.42 211.22C53.7533 211.22 53.14 211.113 52.58 210.9C52.02 210.687 51.5333 210.38 51.12 209.98C50.72 209.567 50.4067 209.06 50.18 208.46C49.9533 207.86 49.84 207.18 49.84 206.42C49.84 205.647 49.9533 204.96 50.18 204.36C50.4067 203.747 50.7133 203.233 51.1 202.82C51.5 202.407 51.96 202.087 52.48 201.86C53.0133 201.633 53.58 201.52 54.18 201.52C54.7 201.52 55.1933 201.613 55.66 201.8C56.14 201.987 56.5533 202.267 56.9 202.64C57.26 203 57.54 203.46 57.74 204.02C57.9533 204.58 58.06 205.233 58.06 205.98C58.06 206.113 58.06 206.267 58.06 206.44C58.06 206.6 58.0533 206.74 58.04 206.86H51.76C51.7867 207.34 51.88 207.76 52.04 208.12C52.2 208.467 52.4 208.753 52.64 208.98C52.8933 209.207 53.18 209.373 53.5 209.48C53.82 209.587 54.1533 209.64 54.5 209.64C54.8067 209.64 55.0867 209.613 55.34 209.56C55.6067 209.493 55.86 209.393 56.1 209.26C56.34 209.127 56.56 208.947 56.76 208.72L57.8 209.74C57.52 210.073 57.2067 210.353 56.86 210.58C56.5133 210.793 56.1333 210.953 55.72 211.06C55.32 211.167 54.8867 211.22 54.42 211.22ZM51.8 205.36H56.12C56.12 204.987 56.0733 204.66 55.98 204.38C55.8867 204.1 55.7467 203.86 55.56 203.66C55.3867 203.46 55.1733 203.313 54.92 203.22C54.6667 203.113 54.3867 203.06 54.08 203.06C53.7867 203.06 53.5133 203.107 53.26 203.2C53.02 203.293 52.8 203.433 52.6 203.62C52.4 203.807 52.2267 204.047 52.08 204.34C51.9467 204.62 51.8533 204.96 51.8 205.36ZM63.04 211.22C62.0133 211.22 61.2133 210.987 60.64 210.52C60.08 210.04 59.8 209.42 59.8 208.66C59.8 208.153 59.9133 207.7 60.14 207.3C60.38 206.887 60.7133 206.533 61.14 206.24C61.58 205.947 62.1067 205.72 62.72 205.56C63.3333 205.387 64.0267 205.3 64.8 205.3C64.96 205.3 65.1267 205.307 65.3 205.32C65.4867 205.32 65.68 205.327 65.88 205.34C66.0933 205.353 66.3067 205.367 66.52 205.38L66.58 206.8C66.3933 206.773 66.1933 206.753 65.98 206.74C65.78 206.727 65.58 206.72 65.38 206.72C65.18 206.72 64.9933 206.72 64.82 206.72C64.3 206.72 63.8467 206.76 63.46 206.84C63.0867 206.907 62.7733 207.013 62.52 207.16C62.28 207.307 62.1 207.487 61.98 207.7C61.86 207.913 61.8 208.16 61.8 208.44C61.8 208.667 61.84 208.867 61.92 209.04C62 209.2 62.1067 209.327 62.24 209.42C62.3867 209.513 62.5533 209.587 62.74 209.64C62.94 209.68 63.1533 209.7 63.38 209.7C63.82 209.7 64.2067 209.627 64.54 209.48C64.8733 209.333 65.1533 209.12 65.38 208.84C65.62 208.547 65.8 208.187 65.92 207.76C66.04 207.32 66.1 206.807 66.1 206.22C66.1 205.407 66.0067 204.773 65.82 204.32C65.6467 203.867 65.3867 203.553 65.04 203.38C64.6933 203.207 64.26 203.12 63.74 203.12C63.3133 203.12 62.9 203.193 62.5 203.34C62.1133 203.473 61.7333 203.727 61.36 204.1L60.3 202.9C60.8067 202.42 61.36 202.073 61.96 201.86C62.5733 201.647 63.2 201.54 63.84 201.54C64.4267 201.54 64.9667 201.613 65.46 201.76C65.9667 201.893 66.4067 202.12 66.78 202.44C67.1667 202.76 67.46 203.193 67.66 203.74C67.8733 204.287 67.98 204.98 67.98 205.82V211H65.9V209.86C65.7267 210.127 65.5333 210.353 65.32 210.54C65.1067 210.713 64.8733 210.853 64.62 210.96C64.38 211.053 64.1267 211.12 63.86 211.16C63.5933 211.2 63.32 211.22 63.04 211.22ZM74.98 211.18C74.4333 211.18 73.96 211.093 73.56 210.92C73.1733 210.733 72.86 210.44 72.62 210.04C72.3933 209.64 72.2333 209.12 72.14 208.48C72.0467 207.84 72.0133 207.06 72.04 206.14L72.3 199.5L74.34 199.24L74.54 199.22L74.56 199.4C74.4933 199.493 74.4333 199.587 74.38 199.68C74.34 199.773 74.3067 199.933 74.28 200.16L74.08 202.74L74.16 202.96L74.02 206.14C73.98 207.047 74.0067 207.753 74.1 208.26C74.1933 208.753 74.3533 209.1 74.58 209.3C74.8067 209.487 75.08 209.58 75.4 209.58C75.8267 209.58 76.2067 209.493 76.54 209.32C76.8867 209.147 77.2267 208.933 77.56 208.68L78 210.16C77.5467 210.493 77.0733 210.747 76.58 210.92C76.0867 211.093 75.5533 211.18 74.98 211.18ZM70.24 201.74H77.22L77.2 203.34H70.24V201.74ZM84.42 211.22C83.7533 211.22 83.14 211.113 82.58 210.9C82.02 210.687 81.5333 210.38 81.12 209.98C80.72 209.567 80.4067 209.06 80.18 208.46C79.9533 207.86 79.84 207.18 79.84 206.42C79.84 205.647 79.9533 204.96 80.18 204.36C80.4067 203.747 80.7133 203.233 81.1 202.82C81.5 202.407 81.96 202.087 82.48 201.86C83.0133 201.633 83.58 201.52 84.18 201.52C84.7 201.52 85.1933 201.613 85.66 201.8C86.14 201.987 86.5533 202.267 86.9 202.64C87.26 203 87.54 203.46 87.74 204.02C87.9533 204.58 88.06 205.233 88.06 205.98C88.06 206.113 88.06 206.267 88.06 206.44C88.06 206.6 88.0533 206.74 88.04 206.86H81.76C81.7867 207.34 81.88 207.76 82.04 208.12C82.2 208.467 82.4 208.753 82.64 208.98C82.8933 209.207 83.18 209.373 83.5 209.48C83.82 209.587 84.1533 209.64 84.5 209.64C84.8067 209.64 85.0867 209.613 85.34 209.56C85.6067 209.493 85.86 209.393 86.1 209.26C86.34 209.127 86.56 208.947 86.76 208.72L87.8 209.74C87.52 210.073 87.2067 210.353 86.86 210.58C86.5133 210.793 86.1333 210.953 85.72 211.06C85.32 211.167 84.8867 211.22 84.42 211.22ZM81.8 205.36H86.12C86.12 204.987 86.0733 204.66 85.98 204.38C85.8867 204.1 85.7467 203.86 85.56 203.66C85.3867 203.46 85.1733 203.313 84.92 203.22C84.6667 203.113 84.3867 203.06 84.08 203.06C83.7867 203.06 83.5133 203.107 83.26 203.2C83.02 203.293 82.8 203.433 82.6 203.62C82.4 203.807 82.2267 204.047 82.08 204.34C81.9467 204.62 81.8533 204.96 81.8 205.36ZM101.52 214.5C101.08 214.5 100.687 214.427 100.34 214.28C99.9933 214.147 99.66 213.94 99.34 213.66L100.08 212.3L100.18 212.14L100.32 212.22C100.36 212.313 100.407 212.4 100.46 212.48C100.527 212.573 100.653 212.687 100.84 212.82C100.947 212.86 101.06 212.887 101.18 212.9C101.3 212.927 101.42 212.94 101.54 212.94C101.847 212.94 102.107 212.86 102.32 212.7C102.533 212.553 102.72 212.32 102.88 212C103.053 211.68 103.227 211.267 103.4 210.76L105.32 205.16C105.52 204.573 105.693 204.007 105.84 203.46C106 202.9 106.1 202.327 106.14 201.74H108.02C107.967 202.353 107.827 202.987 107.6 203.64C107.387 204.293 107.167 204.927 106.94 205.54L104.64 211.88C104.293 212.853 103.86 213.533 103.34 213.92C102.82 214.307 102.213 214.5 101.52 214.5ZM99.72 201.74H101.74L104.54 209.02L103.54 211.22L99.72 201.74ZM114 211.2C113.16 211.2 112.413 211 111.76 210.6C111.107 210.187 110.587 209.62 110.2 208.9C109.813 208.167 109.62 207.327 109.62 206.38C109.62 205.447 109.813 204.62 110.2 203.9C110.587 203.167 111.107 202.593 111.76 202.18C112.413 201.753 113.16 201.54 114 201.54C114.827 201.54 115.567 201.753 116.22 202.18C116.887 202.593 117.413 203.167 117.8 203.9C118.187 204.62 118.38 205.447 118.38 206.38C118.38 207.313 118.187 208.147 117.8 208.88C117.413 209.6 116.887 210.167 116.22 210.58C115.567 210.993 114.827 211.2 114 211.2ZM114 209.58C114.453 209.58 114.853 209.447 115.2 209.18C115.56 208.9 115.84 208.52 116.04 208.04C116.24 207.56 116.34 207 116.34 206.36C116.34 205.707 116.24 205.14 116.04 204.66C115.84 204.18 115.56 203.807 115.2 203.54C114.853 203.273 114.453 203.14 114 203.14C113.547 203.14 113.14 203.273 112.78 203.54C112.433 203.807 112.16 204.18 111.96 204.66C111.76 205.14 111.66 205.707 111.66 206.36C111.66 207 111.76 207.56 111.96 208.04C112.16 208.52 112.433 208.9 112.78 209.18C113.14 209.447 113.547 209.58 114 209.58ZM123.3 211.22C122.927 211.22 122.573 211.167 122.24 211.06C121.92 210.967 121.627 210.813 121.36 210.6C121.093 210.387 120.86 210.12 120.66 209.8C120.473 209.48 120.327 209.093 120.22 208.64C120.127 208.187 120.08 207.673 120.08 207.1L120.1 201.74H122.06V207.1C122.06 207.567 122.1 207.967 122.18 208.3C122.273 208.62 122.393 208.88 122.54 209.08C122.7 209.28 122.88 209.427 123.08 209.52C123.28 209.6 123.493 209.64 123.72 209.64C124.013 209.64 124.287 209.587 124.54 209.48C124.793 209.373 125.013 209.213 125.2 209C125.4 208.773 125.547 208.493 125.64 208.16C125.747 207.813 125.8 207.413 125.8 206.96V201.74H127.8V209.54C127.8 209.807 127.807 210.06 127.82 210.3C127.847 210.527 127.907 210.76 128 211H126.14C126.073 210.853 126.027 210.713 126 210.58C125.973 210.433 125.953 210.293 125.94 210.16C125.94 210.013 125.94 209.867 125.94 209.72C125.807 209.973 125.64 210.193 125.44 210.38C125.253 210.567 125.04 210.727 124.8 210.86C124.573 210.98 124.333 211.067 124.08 211.12C123.84 211.187 123.58 211.22 123.3 211.22ZM130.98 201.74H133.04L133 204.38L132.76 204.16C132.827 203.76 132.953 203.4 133.14 203.08C133.327 202.747 133.553 202.467 133.82 202.24C134.1 202.013 134.407 201.84 134.74 201.72C135.073 201.587 135.42 201.52 135.78 201.52C136.287 201.52 136.747 201.607 137.16 201.78C137.573 201.953 137.947 202.213 138.28 202.56L137.44 204.2L137.36 204.38L137.2 204.3C137.16 204.193 137.12 204.087 137.08 203.98C137.04 203.873 136.94 203.747 136.78 203.6C136.58 203.467 136.38 203.367 136.18 203.3C135.993 203.233 135.773 203.2 135.52 203.2C135.2 203.2 134.887 203.26 134.58 203.38C134.287 203.487 134.02 203.66 133.78 203.9C133.54 204.14 133.347 204.447 133.2 204.82C133.067 205.18 133 205.62 133 206.14V211.02H130.98V201.74ZM151.92 203.32H149.94V201.74H151.92V201.12C151.92 200.293 152.087 199.613 152.42 199.08C152.767 198.533 153.22 198.133 153.78 197.88C154.34 197.613 154.953 197.48 155.62 197.48C156.233 197.48 156.8 197.587 157.32 197.8C157.84 198.013 158.287 198.333 158.66 198.76L157.82 200.14L157.72 200.3L157.58 200.22C157.553 200.113 157.513 200.007 157.46 199.9C157.42 199.793 157.32 199.667 157.16 199.52C156.933 199.347 156.713 199.227 156.5 199.16C156.287 199.093 156.027 199.06 155.72 199.06C155.347 199.06 155.02 199.133 154.74 199.28C154.473 199.413 154.26 199.633 154.1 199.94C153.953 200.233 153.88 200.627 153.88 201.12V201.74H156.76V203.32H153.88V211H151.92V203.32ZM160.8 211V209.42H163.1V203.32H160.9V201.74H165.1V209.42H167.2V211H160.8ZM163.98 200.08C163.62 200.08 163.313 199.96 163.06 199.72C162.82 199.467 162.7 199.173 162.7 198.84C162.7 198.48 162.82 198.18 163.06 197.94C163.3 197.7 163.607 197.58 163.98 197.58C164.327 197.58 164.627 197.707 164.88 197.96C165.147 198.213 165.28 198.507 165.28 198.84C165.28 199.173 165.147 199.467 164.88 199.72C164.627 199.96 164.327 200.08 163.98 200.08ZM170.98 201.74H173.04L173 204.38L172.76 204.16C172.827 203.76 172.953 203.4 173.14 203.08C173.327 202.747 173.553 202.467 173.82 202.24C174.1 202.013 174.407 201.84 174.74 201.72C175.073 201.587 175.42 201.52 175.78 201.52C176.287 201.52 176.747 201.607 177.16 201.78C177.573 201.953 177.947 202.213 178.28 202.56L177.44 204.2L177.36 204.38L177.2 204.3C177.16 204.193 177.12 204.087 177.08 203.98C177.04 203.873 176.94 203.747 176.78 203.6C176.58 203.467 176.38 203.367 176.18 203.3C175.993 203.233 175.773 203.2 175.52 203.2C175.2 203.2 174.887 203.26 174.58 203.38C174.287 203.487 174.02 203.66 173.78 203.9C173.54 204.14 173.347 204.447 173.2 204.82C173.067 205.18 173 205.62 173 206.14V211.02H170.98V201.74ZM184.14 211.22C183.58 211.22 183.053 211.167 182.56 211.06C182.067 210.953 181.6 210.793 181.16 210.58C180.733 210.367 180.34 210.093 179.98 209.76L180.9 208.08L181.02 207.9L181.16 207.98C181.187 208.087 181.22 208.2 181.26 208.32C181.3 208.427 181.393 208.56 181.54 208.72C181.86 209 182.227 209.227 182.64 209.4C183.053 209.56 183.56 209.64 184.16 209.64C184.573 209.64 184.92 209.593 185.2 209.5C185.493 209.393 185.72 209.253 185.88 209.08C186.04 208.893 186.12 208.687 186.12 208.46C186.12 208.287 186.073 208.14 185.98 208.02C185.9 207.887 185.773 207.767 185.6 207.66C185.427 207.54 185.2 207.427 184.92 207.32C184.64 207.2 184.3 207.087 183.9 206.98C183.22 206.78 182.627 206.553 182.12 206.3C181.613 206.033 181.22 205.72 180.94 205.36C180.66 205 180.52 204.573 180.52 204.08C180.52 203.587 180.66 203.153 180.94 202.78C181.233 202.393 181.647 202.087 182.18 201.86C182.713 201.633 183.347 201.52 184.08 201.52C184.48 201.52 184.853 201.553 185.2 201.62C185.56 201.673 185.887 201.76 186.18 201.88C186.487 202 186.773 202.153 187.04 202.34C187.307 202.513 187.56 202.72 187.8 202.96L186.78 204.32L186.66 204.48L186.52 204.36C186.507 204.253 186.473 204.153 186.42 204.06C186.38 203.967 186.287 203.847 186.14 203.7C185.847 203.487 185.527 203.327 185.18 203.22C184.833 203.113 184.48 203.06 184.12 203.06C183.653 203.06 183.24 203.14 182.88 203.3C182.533 203.46 182.36 203.7 182.36 204.02C182.36 204.207 182.433 204.38 182.58 204.54C182.74 204.7 182.993 204.86 183.34 205.02C183.687 205.167 184.16 205.32 184.76 205.48C185.52 205.68 186.133 205.913 186.6 206.18C187.067 206.433 187.407 206.733 187.62 207.08C187.847 207.427 187.96 207.833 187.96 208.3C187.96 208.82 187.813 209.307 187.52 209.76C187.24 210.2 186.813 210.553 186.24 210.82C185.667 211.087 184.967 211.22 184.14 211.22ZM194.98 211.18C194.433 211.18 193.96 211.093 193.56 210.92C193.173 210.733 192.86 210.44 192.62 210.04C192.393 209.64 192.233 209.12 192.14 208.48C192.047 207.84 192.013 207.06 192.04 206.14L192.3 199.5L194.34 199.24L194.54 199.22L194.56 199.4C194.493 199.493 194.433 199.587 194.38 199.68C194.34 199.773 194.307 199.933 194.28 200.16L194.08 202.74L194.16 202.96L194.02 206.14C193.98 207.047 194.007 207.753 194.1 208.26C194.193 208.753 194.353 209.1 194.58 209.3C194.807 209.487 195.08 209.58 195.4 209.58C195.827 209.58 196.207 209.493 196.54 209.32C196.887 209.147 197.227 208.933 197.56 208.68L198 210.16C197.547 210.493 197.073 210.747 196.58 210.92C196.087 211.093 195.553 211.18 194.98 211.18ZM190.24 201.74H197.22L197.2 203.34H190.24V201.74ZM210.04 214.34V201.74H212.02V203.22C212.193 202.82 212.413 202.5 212.68 202.26C212.96 202.007 213.267 201.827 213.6 201.72C213.933 201.6 214.293 201.54 214.68 201.54C215.187 201.54 215.66 201.647 216.1 201.86C216.553 202.06 216.953 202.36 217.3 202.76C217.647 203.16 217.92 203.66 218.12 204.26C218.32 204.86 218.42 205.56 218.42 206.36C218.42 207.173 218.313 207.887 218.1 208.5C217.887 209.113 217.6 209.627 217.24 210.04C216.893 210.44 216.493 210.74 216.04 210.94C215.587 211.14 215.12 211.24 214.64 211.24C214.307 211.24 213.973 211.193 213.64 211.1C213.32 211.02 213.027 210.893 212.76 210.72C212.493 210.533 212.26 210.32 212.06 210.08V214.34H210.04ZM214.14 209.64C214.447 209.64 214.733 209.587 215 209.48C215.267 209.36 215.507 209.18 215.72 208.94C215.933 208.687 216.1 208.347 216.22 207.92C216.34 207.48 216.4 206.947 216.4 206.32C216.4 205.653 216.313 205.087 216.14 204.62C215.98 204.153 215.74 203.793 215.42 203.54C215.113 203.287 214.74 203.153 214.3 203.14C213.967 203.127 213.66 203.187 213.38 203.32C213.1 203.44 212.86 203.64 212.66 203.92C212.46 204.187 212.307 204.547 212.2 205C212.107 205.44 212.06 205.967 212.06 206.58C212.06 206.993 212.087 207.367 212.14 207.7C212.207 208.02 212.3 208.307 212.42 208.56C212.54 208.8 212.68 209 212.84 209.16C213.013 209.32 213.207 209.44 213.42 209.52C213.647 209.6 213.887 209.64 214.14 209.64ZM224 211.2C223.16 211.2 222.413 211 221.76 210.6C221.107 210.187 220.587 209.62 220.2 208.9C219.813 208.167 219.62 207.327 219.62 206.38C219.62 205.447 219.813 204.62 220.2 203.9C220.587 203.167 221.107 202.593 221.76 202.18C222.413 201.753 223.16 201.54 224 201.54C224.827 201.54 225.567 201.753 226.22 202.18C226.887 202.593 227.413 203.167 227.8 203.9C228.187 204.62 228.38 205.447 228.38 206.38C228.38 207.313 228.187 208.147 227.8 208.88C227.413 209.6 226.887 210.167 226.22 210.58C225.567 210.993 224.827 211.2 224 211.2ZM224 209.58C224.453 209.58 224.853 209.447 225.2 209.18C225.56 208.9 225.84 208.52 226.04 208.04C226.24 207.56 226.34 207 226.34 206.36C226.34 205.707 226.24 205.14 226.04 204.66C225.84 204.18 225.56 203.807 225.2 203.54C224.853 203.273 224.453 203.14 224 203.14C223.547 203.14 223.14 203.273 222.78 203.54C222.433 203.807 222.16 204.18 221.96 204.66C221.76 205.14 221.66 205.707 221.66 206.36C221.66 207 221.76 207.56 221.96 208.04C222.16 208.52 222.433 208.9 222.78 209.18C223.14 209.447 223.547 209.58 224 209.58ZM234.14 211.22C233.58 211.22 233.053 211.167 232.56 211.06C232.067 210.953 231.6 210.793 231.16 210.58C230.733 210.367 230.34 210.093 229.98 209.76L230.9 208.08L231.02 207.9L231.16 207.98C231.187 208.087 231.22 208.2 231.26 208.32C231.3 208.427 231.393 208.56 231.54 208.72C231.86 209 232.227 209.227 232.64 209.4C233.053 209.56 233.56 209.64 234.16 209.64C234.573 209.64 234.92 209.593 235.2 209.5C235.493 209.393 235.72 209.253 235.88 209.08C236.04 208.893 236.12 208.687 236.12 208.46C236.12 208.287 236.073 208.14 235.98 208.02C235.9 207.887 235.773 207.767 235.6 207.66C235.427 207.54 235.2 207.427 234.92 207.32C234.64 207.2 234.3 207.087 233.9 206.98C233.22 206.78 232.627 206.553 232.12 206.3C231.613 206.033 231.22 205.72 230.94 205.36C230.66 205 230.52 204.573 230.52 204.08C230.52 203.587 230.66 203.153 230.94 202.78C231.233 202.393 231.647 202.087 232.18 201.86C232.713 201.633 233.347 201.52 234.08 201.52C234.48 201.52 234.853 201.553 235.2 201.62C235.56 201.673 235.887 201.76 236.18 201.88C236.487 202 236.773 202.153 237.04 202.34C237.307 202.513 237.56 202.72 237.8 202.96L236.78 204.32L236.66 204.48L236.52 204.36C236.507 204.253 236.473 204.153 236.42 204.06C236.38 203.967 236.287 203.847 236.14 203.7C235.847 203.487 235.527 203.327 235.18 203.22C234.833 203.113 234.48 203.06 234.12 203.06C233.653 203.06 233.24 203.14 232.88 203.3C232.533 203.46 232.36 203.7 232.36 204.02C232.36 204.207 232.433 204.38 232.58 204.54C232.74 204.7 232.993 204.86 233.34 205.02C233.687 205.167 234.16 205.32 234.76 205.48C235.52 205.68 236.133 205.913 236.6 206.18C237.067 206.433 237.407 206.733 237.62 207.08C237.847 207.427 237.96 207.833 237.96 208.3C237.96 208.82 237.813 209.307 237.52 209.76C237.24 210.2 236.813 210.553 236.24 210.82C235.667 211.087 234.967 211.22 234.14 211.22ZM244.98 211.18C244.433 211.18 243.96 211.093 243.56 210.92C243.173 210.733 242.86 210.44 242.62 210.04C242.393 209.64 242.233 209.12 242.14 208.48C242.047 207.84 242.013 207.06 242.04 206.14L242.3 199.5L244.34 199.24L244.54 199.22L244.56 199.4C244.493 199.493 244.433 199.587 244.38 199.68C244.34 199.773 244.307 199.933 244.28 200.16L244.08 202.74L244.16 202.96L244.02 206.14C243.98 207.047 244.007 207.753 244.1 208.26C244.193 208.753 244.353 209.1 244.58 209.3C244.807 209.487 245.08 209.58 245.4 209.58C245.827 209.58 246.207 209.493 246.54 209.32C246.887 209.147 247.227 208.933 247.56 208.68L248 210.16C247.547 210.493 247.073 210.747 246.58 210.92C246.087 211.093 245.553 211.18 244.98 211.18ZM240.24 201.74H247.22L247.2 203.34H240.24V201.74ZM253.1 206.92L252.56 199.28C252.547 198.893 252.593 198.58 252.7 198.34C252.807 198.1 252.96 197.92 253.16 197.8C253.36 197.68 253.58 197.62 253.82 197.62C254.06 197.62 254.273 197.68 254.46 197.8C254.66 197.907 254.813 198.093 254.92 198.36C255.04 198.613 255.093 198.96 255.08 199.4L254.5 206.92H253.1ZM253.78 211.22C253.38 211.22 253.033 211.087 252.74 210.82C252.46 210.54 252.32 210.207 252.32 209.82C252.32 209.447 252.46 209.12 252.74 208.84C253.033 208.547 253.38 208.4 253.78 208.4C254.193 208.4 254.54 208.547 254.82 208.84C255.113 209.133 255.26 209.46 255.26 209.82C255.26 210.193 255.113 210.52 254.82 210.8C254.527 211.08 254.18 211.22 253.78 211.22Z" fill="#646261"/>
    <path d="M158 155.974C158.005 158.743 157.189 161.451 155.655 163.756C154.121 166.062 151.938 167.86 149.381 168.924C146.825 169.989 144.011 170.271 141.294 169.736C138.577 169.201 136.08 167.872 134.118 165.917C132.157 163.963 130.819 161.471 130.274 158.756C129.729 156.041 130.001 153.225 131.056 150.665C132.111 148.105 133.902 145.915 136.202 144.373C138.501 142.831 141.207 142.005 143.976 142C147.685 142.004 151.243 143.475 153.871 146.094C156.498 148.712 157.983 152.264 158 155.974ZM131.755 155.944C131.744 158.368 132.452 160.74 133.79 162.761C135.129 164.782 137.037 166.36 139.273 167.296C141.508 168.232 143.972 168.483 146.351 168.018C148.729 167.553 150.917 166.392 152.635 164.683C154.354 162.974 155.527 160.793 156.006 158.417C156.484 156.041 156.247 153.577 155.324 151.335C154.401 149.094 152.833 147.177 150.82 145.828C148.807 144.478 146.438 143.756 144.015 143.753C140.777 143.76 137.673 145.044 135.377 147.327C133.081 149.609 131.779 152.706 131.755 155.944Z" fill="#646261"/>
    <path d="M143.88 161.305C142.585 161.316 141.305 161.025 140.142 160.456C138.979 159.887 137.965 159.055 137.178 158.027C137.08 157.895 137.014 157.742 136.984 157.58C136.955 157.418 136.963 157.251 137.009 157.093C137.241 156.555 138.011 156.636 138.451 157.229C139.432 158.55 140.876 159.451 142.493 159.751C143.73 160.03 145.02 159.969 146.225 159.573C147.431 159.177 148.506 158.461 149.336 157.502C149.464 157.344 149.542 157.099 149.712 157.037C150.037 156.919 150.511 156.764 150.734 156.885C150.856 156.986 150.945 157.12 150.992 157.271C151.038 157.421 151.039 157.583 150.996 157.734C150.646 158.289 150.217 158.789 149.722 159.219C148.093 160.601 146.016 161.343 143.88 161.305Z" fill="#646261"/>
    <path d="M147.486 151.726C147.717 151.727 147.945 151.774 148.157 151.866C148.369 151.957 148.561 152.091 148.72 152.259C148.879 152.426 149.002 152.624 149.082 152.841C149.162 153.058 149.198 153.288 149.186 153.519C149.176 153.971 148.989 154.402 148.665 154.718C148.341 155.034 147.906 155.21 147.454 155.209C147.223 155.209 146.994 155.163 146.781 155.074C146.567 154.985 146.374 154.855 146.211 154.692C146.048 154.528 145.919 154.333 145.832 154.12C145.744 153.906 145.7 153.677 145.701 153.446C145.703 153.215 145.75 152.987 145.841 152.774C145.932 152.562 146.065 152.37 146.231 152.21C146.397 152.05 146.594 151.925 146.81 151.842C147.025 151.758 147.255 151.719 147.486 151.726Z" fill="#646261"/>
    <path d="M140.938 151.727C141.169 151.727 141.398 151.773 141.61 151.863C141.823 151.952 142.016 152.084 142.177 152.249C142.338 152.414 142.464 152.61 142.549 152.825C142.633 153.04 142.673 153.269 142.667 153.5C142.662 153.731 142.61 153.958 142.516 154.169C142.422 154.38 142.287 154.57 142.12 154.729C141.952 154.887 141.755 155.011 141.539 155.093C141.323 155.175 141.093 155.214 140.863 155.207C140.411 155.194 139.982 155.004 139.668 154.678C139.354 154.353 139.18 153.917 139.183 153.465C139.179 153.234 139.222 153.005 139.309 152.791C139.396 152.577 139.525 152.383 139.689 152.221C139.853 152.058 140.049 151.931 140.263 151.846C140.478 151.761 140.708 151.721 140.938 151.727Z" fill="#646261"/>
</svg>
